<svg width="1055" height="1055" viewBox="0 0 1055 1055" fill="none" xmlns="http://www.w3.org/2000/svg">
    <path d="M527.233 1054.47C818.416 1054.47 1054.47 818.416 1054.47 527.233C1054.47 236.05 818.416 0 527.233 0C236.05 0 0 236.05 0 527.233C0 818.416 236.05 1054.47 527.233 1054.47Z" fill="black"/>
    <path fill-rule="evenodd" clip-rule="evenodd" d="M639.701 222.247C639.701 222.247 715.4 178.983 792.381 175.426C795.303 175.187 798.207 176.053 800.52 177.854C802.833 179.654 804.386 182.258 804.87 185.149C812.191 238.652 809.404 293.055 796.655 345.531L639.701 222.247ZM480.1 718.232L511.358 742.815L513.038 741.816C514.564 740.654 516.114 739.516 517.665 738.377C520.615 736.211 523.57 734.041 526.382 731.695C568.24 697.089 607.425 659.37 643.602 618.861C670.115 589.099 694.442 557.461 716.394 524.192C745.874 479.198 769.424 430.587 786.458 379.563C786.892 378.683 786.963 377.669 786.657 376.737C786.351 375.806 785.693 375.031 784.822 374.579C735.203 335.987 685.436 297.412 635.52 258.857C631.636 255.86 627.671 252.95 623.701 250.037L623.699 250.035C620.081 247.381 616.46 244.724 612.894 241.995C611.887 240.955 610.516 240.345 609.069 240.294C607.622 240.243 606.212 240.754 605.134 241.721C602.501 243.731 599.716 245.531 596.933 247.329L596.933 247.329L596.932 247.329C595.144 248.485 593.356 249.64 591.61 250.85C540.195 286.477 494.252 329.415 455.234 378.307C429.266 410.117 405.7 443.814 384.73 479.12C362.284 515.622 342.393 553.636 325.201 592.888C324.075 595.622 324.033 597.093 326.656 599.135C377.718 638.751 428.866 678.45 480.1 718.232ZM392.45 797.001C409.128 783.758 414.896 765.333 413.183 744.343C411.979 734.46 408.394 725.016 402.738 716.823C397.081 708.629 389.521 701.93 380.707 697.299C368.468 690.934 354.391 689.038 340.904 691.938C326.937 693.789 314.242 701.015 305.519 712.08C298.024 722.209 292.415 733.604 288.958 745.721C288.078 748.49 287.195 751.26 286.313 754.03L286.309 754.043L286.305 754.056C278.338 779.066 270.352 804.137 263.333 829.27C260.047 840.59 257.576 852.11 255.099 863.655C254.542 866.251 253.985 868.848 253.418 871.444C252.521 876.011 255.282 878.261 259.711 876.694C263.412 875.473 266.993 873.913 270.409 872.034C276.92 868.354 283.441 864.697 289.96 861.041L289.963 861.039C309.709 849.966 329.432 838.905 348.795 827.251C363.987 818.125 378.57 808.02 392.45 797.001ZM367.815 448.78L367.814 448.781C366.834 450.394 365.851 452.01 364.862 453.627C341.792 491.134 320.79 529.875 301.952 569.677C297.909 578.273 297.716 578.213 288.771 575.419L288.679 575.391C272.068 570.392 254.6 568.9 237.382 571.01C219.078 572.705 201.083 576.843 183.878 583.315C184.997 581.516 186.037 579.804 187.036 578.157L187.037 578.156L187.038 578.155C188.891 575.103 190.605 572.28 192.428 569.562C210.404 541.492 232.313 516.145 257.486 494.296C283.007 472.765 312.401 456.299 344.092 445.782C350.196 443.781 356.534 442.453 362.873 441.124L362.874 441.124C366.043 440.46 369.211 439.796 372.35 439.048L373.106 440.138C371.327 443.002 369.574 445.886 367.815 448.78ZM649.905 681.233C650.883 673.951 650.268 666.543 648.103 659.522C647.375 660.262 646.728 660.827 646.118 661.359L646.118 661.359L646.117 661.36C645.721 661.705 645.341 662.037 644.964 662.394C639.879 667.403 634.788 672.479 629.698 677.553L629.697 677.554L629.697 677.554L629.696 677.555L629.694 677.556C617.139 690.074 604.587 702.586 592.138 714.087C578.471 726.713 564.326 738.813 550.172 750.921L550.171 750.922L550.17 750.923L550.167 750.926L550.165 750.927L550.155 750.936L550.145 750.944L550.116 750.969L550.11 750.975C546.164 754.351 542.217 757.727 538.279 761.116C535.738 763.35 535.029 764.904 537.152 767.91C539.459 771.403 541.532 775.044 543.359 778.81C555.114 802.101 557.165 827.165 557.508 852.554C557.574 857.13 557.556 861.689 557.538 866.443L557.538 866.444L557.538 866.453L557.538 866.475L557.538 866.515L557.538 866.571C557.53 868.677 557.522 870.821 557.521 873.022L560.743 869.914C575.95 854.028 589.753 836.857 601.999 818.591C630.602 778.239 647.21 730.621 649.905 681.233ZM563.892 584.001C563.138 583.413 562.956 582.751 562.782 582.115C562.748 581.992 562.715 581.87 562.677 581.749C562.109 579.966 561.534 578.187 560.959 576.407L560.959 576.407C559.44 571.707 557.921 567.01 556.536 562.257C555.948 560.315 555.079 559.364 553.04 559.075C547.151 558.256 541.39 556.689 535.898 554.411C533.866 553.571 532.642 554.057 531.247 555.316C529.333 557.042 527.404 558.753 525.475 560.464C522.381 563.208 519.286 565.953 516.252 568.764C514.681 570.22 513.42 570.306 511.651 569.204C503.868 564.368 496.624 558.716 490.04 552.344C488.736 551.084 488.433 549.958 489.348 548.258C490.954 545.275 492.51 542.262 494.066 539.249L494.066 539.249L494.067 539.247C495.591 536.295 497.115 533.343 498.689 530.416C499.715 528.507 499.88 527.085 498.428 525.176C494.966 520.58 492.119 515.553 489.957 510.22C489.087 508.059 487.856 507.383 485.613 507.299C481.897 507.164 478.182 506.933 474.469 506.703L474.468 506.703C471.477 506.518 468.487 506.332 465.498 506.197C463.61 506.115 462.77 505.46 462.304 503.628C460.019 494.559 458.849 485.244 458.819 475.891C458.803 474.12 459.413 473.289 461.101 472.779C464.386 471.789 467.659 470.754 470.932 469.719L470.932 469.719L470.933 469.718C474.341 468.641 477.748 467.563 481.169 466.537C482.919 466.014 483.668 465.128 483.92 463.336C484.764 457.353 486.375 451.503 488.715 445.932C489.48 444.109 489.075 442.896 487.81 441.518C485.636 439.143 483.498 436.734 481.36 434.325C479.039 431.71 476.717 429.094 474.349 426.521C472.862 424.904 472.639 423.609 473.841 421.674C478.602 413.963 484.193 406.797 490.514 400.303C491.887 398.901 493.027 398.609 494.825 399.578C497.762 401.158 500.723 402.69 503.685 404.223L503.688 404.224C506.949 405.911 510.21 407.598 513.438 409.349C514.861 410.123 515.853 410.116 517.101 409.181C522.166 405.382 527.686 402.232 533.533 399.804C535.048 399.173 535.483 398.251 535.581 396.725C535.733 393.444 535.925 390.174 536.118 386.91L536.118 386.906C536.333 383.265 536.547 379.63 536.703 375.994C536.8 373.962 537.375 372.919 539.512 372.386C548.329 370.301 557.344 369.158 566.403 368.977C568.781 368.914 569.784 369.762 570.439 372.037C571.468 375.617 572.604 379.166 573.739 382.714L573.74 382.717L573.741 382.718C574.651 385.564 575.562 388.409 576.418 391.27C576.935 393.008 577.768 393.805 579.565 394.099C585.437 394.967 591.179 396.552 596.665 398.818C598.588 399.626 600.06 399.355 601.629 397.912C603.838 395.875 606.088 393.882 608.337 391.889L608.338 391.888C611.042 389.493 613.745 387.098 616.377 384.628C618.136 382.978 619.496 382.975 621.465 384.182C629.021 388.825 636.041 394.29 642.396 400.476C644.043 402.077 644.383 403.395 643.191 405.546C641.339 408.887 639.591 412.285 637.842 415.682L637.841 415.684C636.563 418.168 635.285 420.652 633.966 423.114C633.035 424.853 632.916 426.244 634.154 427.905C637.83 432.828 640.886 438.185 643.253 443.854C643.948 445.516 645.073 445.834 646.667 445.911C649.617 446.057 652.565 446.235 655.512 446.412C659.462 446.65 663.411 446.888 667.363 447.05C669.263 447.134 670.09 447.778 670.55 449.627C672.816 458.785 673.978 468.18 674.011 477.613C674.013 479.336 673.275 480.008 671.803 480.45C668.76 481.383 665.726 482.345 662.691 483.306C659.049 484.461 655.407 485.615 651.751 486.719C650.038 487.233 649.218 488.019 648.947 489.863C648.072 495.95 646.43 501.901 644.062 507.576C643.373 509.213 643.644 510.314 644.915 511.674C647.591 514.527 650.192 517.451 652.793 520.375C654.708 522.528 656.623 524.682 658.568 526.806C660.059 528.427 660.153 529.687 658.951 531.652C654.292 539.193 648.857 546.226 642.734 552.636C640.968 554.504 639.528 554.592 637.431 553.435C634.487 551.841 631.513 550.302 628.538 548.762L628.535 548.76L628.532 548.759C625.628 547.256 622.724 545.752 619.848 544.199C618.193 543.304 616.909 543.209 615.343 544.401C610.523 548.035 605.252 551.026 599.661 553.301C597.978 553.986 597.306 554.925 597.229 556.749C597.072 560.346 596.86 563.94 596.648 567.536C596.447 570.934 596.247 574.334 596.093 577.737C596.016 579.494 595.392 580.314 593.671 580.733C584.605 583.044 575.28 584.187 565.924 584.136C565.458 584.128 564.996 584.088 564.592 584.052C564.329 584.03 564.091 584.009 563.892 584.001ZM616.947 506.077C615.554 504.992 614.163 503.903 612.772 502.813L612.769 502.811C609.177 499.997 605.584 497.182 601.936 494.443C600.321 493.23 599.971 492.098 600.835 490.263C601.995 487.783 602.736 485.128 603.027 482.406C603.221 480.546 603.929 479.732 605.868 479.557C608.78 479.302 611.682 478.913 614.585 478.524L614.586 478.524C615.738 478.37 616.89 478.216 618.043 478.07C620.767 477.728 623.493 477.393 626.219 477.058C631.993 476.348 637.769 475.638 643.541 474.86C645.254 474.682 646.856 473.929 648.085 472.724C649.315 471.518 650.099 469.931 650.31 468.222C650.544 466.569 650.237 464.886 649.434 463.422C648.632 461.959 647.377 460.795 645.857 460.104C644.009 459.199 642.1 459.308 640.141 459.556C636.219 460.052 632.296 460.539 628.374 461.026C620.324 462.025 612.275 463.024 604.238 464.096C602.14 464.369 601.048 463.905 600.269 461.874C599.33 459.413 598.004 457.116 596.343 455.071C595.205 453.674 595.008 452.497 596.228 450.968C598.663 447.922 601.045 444.835 603.436 441.737C604.634 440.183 605.835 438.627 607.045 437.072C608.485 435.223 609.938 433.385 611.391 431.548L611.391 431.547L611.392 431.546C614.292 427.877 617.188 424.214 619.959 420.483C621.091 418.923 621.597 416.993 621.374 415.078C621.152 413.163 620.218 411.401 618.758 410.141C617.377 408.961 615.627 408.298 613.811 408.265C611.994 408.233 610.222 408.833 608.799 409.963C607.853 410.802 606.998 411.738 606.248 412.755C604.147 415.454 602.042 418.15 599.936 420.847L599.936 420.847L599.933 420.851C594.671 427.592 589.407 434.334 584.205 441.119C582.91 442.782 581.809 443.186 579.798 442.348C577.457 441.39 575.01 440.713 572.51 440.332C570.441 440.005 569.536 439.263 569.312 437.101C568.837 432.396 568.236 427.703 567.635 423.011L567.635 423.009C567.42 421.334 567.206 419.658 566.997 417.983C566.785 416.291 566.578 414.597 566.372 412.903L566.37 412.893L566.37 412.891C565.822 408.399 565.273 403.907 564.631 399.455C564.422 397.602 563.554 395.886 562.185 394.619C560.817 393.353 559.038 392.621 557.175 392.556C555.311 392.491 553.486 393.099 552.033 394.267C550.58 395.435 549.595 397.087 549.258 398.921C549.056 400.37 549.095 401.843 549.376 403.278C549.663 405.607 549.95 407.936 550.236 410.264C551.423 419.911 552.61 429.556 553.875 439.195C554.126 441.074 553.656 442.059 551.881 442.71C549.394 443.588 547.083 444.901 545.055 446.589C543.243 448.145 541.925 447.75 540.254 446.427C534.617 441.958 528.93 437.545 523.245 433.133C521.621 431.872 519.997 430.612 518.374 429.35C517.671 428.803 516.972 428.25 516.272 427.698C514.215 426.073 512.158 424.448 510.001 422.951C508.457 421.922 506.593 421.486 504.752 421.721C502.912 421.956 501.218 422.848 499.982 424.233C498.746 425.617 498.052 427.401 498.026 429.257C498.001 431.113 498.646 432.915 499.843 434.333C500.757 435.342 501.771 436.256 502.869 437.06C505.951 439.458 509.029 441.862 512.108 444.265L512.163 444.308C518.358 449.143 524.553 453.979 530.772 458.78C532.38 460.032 533.052 461.112 532.01 463.157C530.86 465.43 530.154 467.903 529.93 470.441C529.728 472.702 528.706 473.472 526.473 473.729C519.026 474.595 511.565 475.531 504.098 476.467C499.409 477.055 494.717 477.644 490.025 478.215C486.882 478.603 484.462 479.976 483.132 482.895C480.497 488.701 485.182 494.558 491.901 493.742C504.174 492.291 516.436 490.752 528.687 489.126C530.681 488.861 531.658 489.332 532.437 491.237C533.326 493.604 534.563 495.825 536.107 497.826C537.948 500.045 537.225 501.441 535.737 503.324C529.984 510.592 524.305 517.912 518.624 525.234L518.624 525.235C517.204 527.065 515.784 528.895 514.362 530.725C513.619 531.635 512.953 532.605 512.371 533.626C511.635 534.954 511.32 536.474 511.47 537.985C511.619 539.495 512.225 540.925 513.208 542.082C515.351 544.656 518.404 545.385 521.636 544.503C523.952 543.865 525.161 542.255 526.467 540.515C526.61 540.325 526.753 540.134 526.899 539.943C531.57 533.843 536.327 527.811 541.083 521.778C543.677 518.487 546.272 515.196 548.852 511.894C549.82 510.652 550.66 510.297 552.295 510.969C554.711 511.996 557.249 512.708 559.847 513.086C562.427 513.432 563.349 514.439 563.638 517.061C564.985 529.149 566.518 541.219 568.102 553.261C568.953 559.792 575.758 562.782 580.681 558.898C583.199 556.912 583.971 554.233 583.575 551.091C582.948 546.142 582.336 541.191 581.723 536.239C580.819 528.93 579.914 521.62 578.965 514.317C578.723 512.474 579.073 511.433 580.914 510.774C583.324 509.973 585.559 508.719 587.499 507.08C589.546 505.26 591.002 505.592 593.003 507.187C602.448 514.712 611.967 522.145 621.561 529.485C625.748 532.684 630.494 532.106 633.227 528.461C635.96 524.817 635.176 520.334 630.994 517.034C627.892 514.584 624.766 512.156 621.639 509.727L621.639 509.727C620.074 508.511 618.51 507.296 616.947 506.077ZM551.166 484.353C548.85 487.899 549.563 491.778 552.709 494.227C554.073 495.365 555.823 495.935 557.597 495.818C559.37 495.701 561.03 494.907 562.234 493.599C563.859 491.925 565.34 490.118 566.662 488.196C568.523 485.549 570.615 483.861 574.104 483.335C580.086 482.427 584.305 477.388 584.864 471.524C585.409 465.79 582.247 460.227 577.175 457.993C567.075 453.536 556.87 460.927 557.959 472.013C558.104 472.965 558.043 473.936 557.782 474.863C557.52 475.789 557.063 476.648 556.442 477.384C554.563 479.613 552.802 481.939 551.166 484.353Z" fill="white"/>
    </svg>
    